<svg xmlns="http://www.w3.org/2000/svg" viewBox="0 0 100.73 114.13" width="100.73" height="114.13">
  <path d="M30.86,110.58c5.4,2.8,5.45,5.14-1.12,2.18C6.31,102.21-5.9,75.37,2.82,51.77,13.6,22.55,53.2,5.18,90.77,15.48c-4.42-6.1-8.87-11.08-9.61-12-1.58-1.44-.1-5,3.06-2.7-.49-.41,17.39,16.93,16.47,20.36-.64,2.38-22.74,12.3-22.82,12.33-2.46,1.16-4.09-3.05-1.63-4.21,6.15-3.32,8.25-4.49,13.37-7.59C56.62,13.9,18.72,27.16,7.93,53c-9,21.47,2.79,47.12,22.93,57.57"  fill="#fede00" fill-rule="evenodd"/>
</svg>
