<svg xmlns="http://www.w3.org/2000/svg" width="99.75" height="16.594" viewBox="0 0 99.75 16.594">
  <metadata><?xpacket begin="﻿" id="W5M0MpCehiHzreSzNTczkc9d"?>
<x:xmpmeta xmlns:x="adobe:ns:meta/" x:xmptk="Adobe XMP Core 5.6-c138 79.159824, 2016/09/14-01:09:01        ">
   <rdf:RDF xmlns:rdf="http://www.w3.org/1999/02/22-rdf-syntax-ns#">
      <rdf:Description rdf:about=""/>
   </rdf:RDF>
</x:xmpmeta>
                                                                                                    
                                                                                                    
                                                                                                    
                                                                                                    
                                                                                                    
                                                                                                    
                                                                                                    
                                                                                                    
                                                                                                    
                                                                                                    
                                                                                                    
                                                                                                    
                                                                                                    
                                                                                                    
                                                                                                    
                                                                                                    
                                                                                                    
                                                                                                    
                                                                                                    
                                                                                                    
                           
<?xpacket end="w"?></metadata>
<defs>
    <style>
      .cls-1 {
        fill: #559fd2;
        fill-rule: evenodd;
      }
    </style>
  </defs>
  <path id="info_israel.tv" data-name="info@israel.tv" class="cls-1" d="M801.571,353.869v-8.714h-1.585v8.714h1.585Zm-0.793-12.153a0.965,0.965,0,0,0-.99.99A0.982,0.982,0,1,0,800.778,341.716Zm3.42,12.153h1.584V348.63a2.278,2.278,0,0,1,.108-0.738,2.252,2.252,0,0,1,2.125-1.621c1.494,0,2.017,1.171,2.017,2.575v5.023h1.584v-5.2c0-2.989-1.873-3.709-3.079-3.709a3.205,3.205,0,0,0-2.881,1.638H805.62l-0.09-1.44h-1.4c0.054,0.72.072,1.458,0.072,2.359v6.355Zm11.718,0v-7.508h2.107v-1.206h-2.107v-0.468c0-1.333.342-2.521,1.692-2.521a2.367,2.367,0,0,1,1.009.2l0.216-1.224a3.675,3.675,0,0,0-1.351-.252,3.031,3.031,0,0,0-2.124.81,4.108,4.108,0,0,0-1.008,3.043v0.414h-1.225v1.206h1.225v7.508h1.566Zm6.984-8.912c-2.412,0-4.321,1.71-4.321,4.627a4.144,4.144,0,0,0,4.177,4.484,4.26,4.26,0,0,0,4.34-4.628C827.1,346.775,825.4,344.957,822.9,344.957Zm-0.036,1.188c1.873,0,2.611,1.873,2.611,3.349,0,1.963-1.134,3.385-2.647,3.385-1.548,0-2.646-1.44-2.646-3.349C820.182,347.874,820.992,346.145,822.864,346.145Zm12.979,3.133c-0.2,1.116-1.153,2.449-2.2,2.449a1.189,1.189,0,0,1-1.188-1.369,2.929,2.929,0,0,1,3.763-3.115Zm1.08,4.97a5.616,5.616,0,0,1-2.719.63,4.5,4.5,0,0,1-4.627-4.862c0-3.655,2.467-5.977,5.4-5.977a4.126,4.126,0,0,1,4.357,4.483c0,2.089-1.027,3.313-1.945,3.3-0.594-.018-0.81-0.648-0.54-2.017l0.612-3.259a4.746,4.746,0,0,0-1.926-.378,4.252,4.252,0,0,0-4.267,4.267,2.042,2.042,0,0,0,1.944,2.269,2.829,2.829,0,0,0,2.539-1.584h0.072a1.332,1.332,0,0,0,1.332,1.584c1.693,0,3.2-1.584,3.2-4.285a5,5,0,0,0-5.239-5.2c-4,0-6.572,3.205-6.572,6.914a5.36,5.36,0,0,0,5.455,5.618,6.56,6.56,0,0,0,3.205-.72Zm7.018-.379v-8.714h-1.584v8.714h1.584Zm-0.792-12.153a0.966,0.966,0,0,0-.991.99A0.982,0.982,0,1,0,843.149,341.716Zm2.807,11.739a4.972,4.972,0,0,0,2.449.6c2.07,0,3.259-1.081,3.259-2.611,0-1.3-.775-2.053-2.287-2.629-1.134-.432-1.656-0.756-1.656-1.476a1.272,1.272,0,0,1,1.458-1.189,3.391,3.391,0,0,1,1.782.5l0.4-1.152a4.356,4.356,0,0,0-2.143-.54c-1.873,0-3.007,1.152-3.007,2.557,0,1.044.738,1.908,2.305,2.466,1.17,0.432,1.62.847,1.62,1.6,0,0.72-.54,1.3-1.692,1.3a4.155,4.155,0,0,1-2.089-.63Zm7.74,0.414h1.566v-4.645a4.458,4.458,0,0,1,.072-0.738,2.224,2.224,0,0,1,2.125-2.035,2.379,2.379,0,0,1,.54.054v-1.494a1.713,1.713,0,0,0-.45-0.054,2.615,2.615,0,0,0-2.413,1.908h-0.072l-0.054-1.71h-1.386c0.054,0.81.072,1.692,0.072,2.719v6Zm12.061,0a12.267,12.267,0,0,1-.144-2.088v-3.259c0-1.747-.648-3.565-3.312-3.565a5.408,5.408,0,0,0-2.863.774l0.36,1.044a4.342,4.342,0,0,1,2.269-.648,1.8,1.8,0,0,1,1.98,2.017v0.18c-3.367-.018-5.239,1.134-5.239,3.241a2.483,2.483,0,0,0,2.664,2.5,3.246,3.246,0,0,0,2.665-1.3h0.054l0.126,1.1h1.44Zm-1.674-2.934a1.653,1.653,0,0,1-.09.5,2.168,2.168,0,0,1-2.107,1.458,1.4,1.4,0,0,1-1.494-1.512c0-1.693,1.963-2,3.691-1.963v1.513Zm11.088-1.135a5.974,5.974,0,0,0,.054-0.738c0-1.6-.756-4.105-3.6-4.105-2.538,0-4.087,2.07-4.087,4.7a4.047,4.047,0,0,0,4.285,4.394,7.055,7.055,0,0,0,2.9-.541l-0.27-1.134a5.73,5.73,0,0,1-2.413.45,2.791,2.791,0,0,1-2.988-3.025h6.121Zm-6.1-1.134a2.626,2.626,0,0,1,2.43-2.575,2.256,2.256,0,0,1,2.2,2.575h-4.627Zm8.117,5.2h1.584V341.086h-1.584v12.783Zm4.752,0.2a1.136,1.136,0,1,0-1.062-1.135A1.055,1.055,0,0,0,881.937,354.068Zm3.4-11v2.089h-1.35v1.206h1.35v4.754a3.227,3.227,0,0,0,.613,2.268,2.2,2.2,0,0,0,1.71.667,3.852,3.852,0,0,0,1.4-.217l-0.072-1.188a3.524,3.524,0,0,1-.918.108c-0.882,0-1.188-.612-1.188-1.692v-4.7h2.268v-1.206h-2.268v-2.5Zm4.68,2.089,3.312,8.714h1.513l3.421-8.714h-1.657l-1.692,4.9c-0.288.793-.54,1.513-0.738,2.233h-0.054a22.257,22.257,0,0,0-.7-2.233l-1.71-4.9h-1.692Zm-91.346,12.314v-0.9h99.769v0.9H798.672Z" transform="translate(-798.688 -340.875)"/>
</svg>
