<svg xmlns="http://www.w3.org/2000/svg" xmlns:xlink="http://www.w3.org/1999/xlink" viewBox="0 0 595 351.59"><defs><clipPath id="a" transform="translate(0 -245.47)"><rect y="244.94" width="595" height="352.12" fill="none"/></clipPath><clipPath id="b" transform="translate(0 -245.47)"><rect x="0.07" y="245.47" width="594.93" height="351.59" fill="none"/></clipPath></defs><title>icon-email</title><g clip-path="url(#a)"><path d="M216.36,488.88c0-8.11-5.41-13.52-13.52-13.52H94.66c-8.11,0-13.52,5.41-13.52,13.52s5.41,13.52,13.52,13.52H202.84c8.11,0,13.52-5.41,13.52-13.52" transform="translate(0 -245.47)" fill="#4c5f67"/></g><g clip-path="url(#b)"><path d="M175.8,421.27c0-8.11-5.41-13.52-13.52-13.52H54.09c-8.11,0-13.52,5.41-13.52,13.52S46,434.79,54.09,434.79H162.27c8.11,0,13.52-5.41,13.52-13.52" transform="translate(0 -245.47)" fill="#4c5f67"/><path d="M135.23,353.65c0-8.11-5.41-13.52-13.52-13.52H13.52C5.41,340.13,0,345.54,0,353.65s5.41,13.52,13.52,13.52H121.7c8.11,0,13.52-5.41,13.52-13.52" transform="translate(0 -245.47)" fill="#4c5f67"/></g><g clip-path="url(#a)"><path d="M519.27,302.27,375.93,411.8a42.63,42.63,0,0,1-50,0L182.56,302.27c-5.41-4.06-14.87-4.06-18.93,2.7-4.06,5.41-4.06,14.88,2.7,18.93L311,433.43c12.17,9.47,27,13.52,40.57,13.52s29.75-4.06,40.57-13.52L535.5,323.9c5.41-4.06,6.76-13.52,2.7-18.93s-13.52-6.76-18.93-2.7" transform="translate(0 -245.47)" fill="#4c5f67"/><path d="M554.43,245.47H121.7c-8.11,0-13.52,5.41-13.52,13.52s5.41,13.52,13.52,13.52H554.43c8.11,0,13.52,5.41,13.52,13.52V556.49c0,8.11-5.41,13.52-13.52,13.52H121.7c-8.11,0-13.52,5.41-13.52,13.52s5.41,13.52,13.52,13.52H554.43c23,0,40.57-17.58,40.57-40.57V286c0-23-17.58-40.57-40.57-40.57" transform="translate(0 -245.47)" fill="#4c5f67"/><path d="M436.78,438.84a13.07,13.07,0,0,0,0,18.93l81.14,81.14a13.07,13.07,0,0,0,18.93,0,13.07,13.07,0,0,0,0-18.93l-81.14-81.14a13.07,13.07,0,0,0-18.93,0" transform="translate(0 -245.47)" fill="#4c5f67"/></g></svg>