<!-- Generator: Adobe Illustrator 21.0.0, SVG Export Plug-In  -->
<svg version="1.1"
    xmlns="http://www.w3.org/2000/svg" xmlns:xlink="http://www.w3.org/1999/xlink" xmlns:a="http://ns.adobe.com/AdobeSVGViewerExtensions/3.0/"
    x="0px" y="0px" width="16px" height="16px" viewBox="0 0 16 16" style="enable-background:new 0 0 16 16;" xml:space="preserve">

<polygon fill="#00B9F2" points="4.7,6.5 3.6,7.6 7.2,11.2 15.2,3.2 14.1,2.1 7.2,9 "/>
<path fill="#FEDE00" d="M14.4,8c0,3.5-2.9,6.4-6.4,6.4S1.6,11.5,1.6,8S4.5,1.6,8,1.6c0.6,0,1.2,0.1,1.8,0.2L11,0.6C10.1,0.2,9,0,8,0
   C3.6,0,0,3.6,0,8s3.6,8,8,8s8-3.6,8-8H14.4z"/>
</svg>
