<!-- Generator: Adobe Illustrator 21.0.0, SVG Export Plug-In  -->
<svg version="1.1"
   xmlns="http://www.w3.org/2000/svg" xmlns:xlink="http://www.w3.org/1999/xlink" xmlns:a="http://ns.adobe.com/AdobeSVGViewerExtensions/3.0/"
   x="0px" y="0px" width="28px" height="28px" viewBox="0 0 28 28" style="enable-background:new 0 0 28 28;" xml:space="preserve">
<style type="text/css">
  .st0{fill:#19AFEF;}
</style>
<defs>
</defs>
<g>
  <path class="st0" d="M14,28C6.3,28,0,21.7,0,14S6.3,0,14,0s14,6.3,14,14S21.7,28,14,28z M14,1C6.8,1,1,6.8,1,14c0,7.2,5.8,13,13,13
    c7.2,0,13-5.8,13-13C27,6.8,21.2,1,14,1z"/>
</g>
<g id="i_1_">
  <path class="st0" d="M15.2,9.5h-1.9v12.7h1.9V9.5z M13.5,7c0.2,0.2,0.5,0.3,0.8,0.3c0.3,0,0.6-0.1,0.8-0.3c0.2-0.3,0.4-0.6,0.3-1
    c0-0.4-0.1-0.7-0.3-1c-0.5-0.4-1.1-0.4-1.6,0c-0.2,0.3-0.4,0.6-0.3,1C13.1,6.4,13.2,6.7,13.5,7z"/>
</g>
</svg>
