<svg 
 xmlns="http://www.w3.org/2000/svg"
 xmlns:xlink="http://www.w3.org/1999/xlink"
 width="12px" height="12px" viewBox="0 0 12 12" style="enable-background:new 0 0 12 12;">
<path fill-rule="evenodd"  fill="rgb(255, 215, 160)" d="M11.553,5.377 C11.784,5.142 11.865,4.796 11.766,4.474 C11.666,4.153 11.406,3.924 11.087,3.875 L8.246,3.443 C8.125,3.424 8.021,3.345 7.967,3.230 L6.697,0.536 C6.554,0.234 6.265,0.046 5.943,0.046 C5.620,0.046 5.331,0.234 5.188,0.536 L3.918,3.231 C3.864,3.345 3.760,3.425 3.639,3.443 L0.799,3.875 C0.479,3.924 0.219,4.153 0.119,4.475 C0.020,4.796 0.101,5.142 0.332,5.377 L2.387,7.474 C2.475,7.564 2.515,7.693 2.494,7.818 L2.009,10.779 C1.966,11.040 2.032,11.294 2.193,11.494 C2.443,11.805 2.880,11.900 3.230,11.708 L5.770,10.310 C5.876,10.251 6.010,10.252 6.116,10.310 L8.656,11.708 C8.779,11.776 8.911,11.810 9.047,11.810 C9.295,11.810 9.531,11.695 9.693,11.494 C9.854,11.294 9.919,11.040 9.876,10.779 L9.391,7.818 C9.370,7.692 9.410,7.564 9.498,7.474 L11.553,5.377 Z"/></svg>